<mxfile host="drawio-plugin" modified="2023-10-24T19:40:41.353Z" agent="5.0 (Windows NT 10.0; Win64; x64) AppleWebKit/537.36 (KHTML, like Gecko) Chrome/111.0.0.0 Safari/537.36" etag="42cEqHD2uY2HRMiltSWM" version="20.5.3" type="embed"><diagram id="23iRSUPoRavnBvh4doch" name="Page-1"><mxGraphModel dx="1327" dy="1703" grid="1" gridSize="10" guides="1" tooltips="1" connect="1" arrows="1" fold="1" page="1" pageScale="1" pageWidth="827" pageHeight="1169" math="0" shadow="0"><root><mxCell id="0"/><mxCell id="1" parent="0"/><mxCell id="wvRRvmHwsbUS-AD2EPGk-203" value="Project: Lab_2" style="swimlane;fontStyle=0;childLayout=stackLayout;horizontal=1;startSize=26;fillColor=none;horizontalStack=0;resizeParent=1;resizeParentMax=0;resizeLast=0;collapsible=1;marginBottom=0;rounded=0;shadow=1;glass=0;sketch=0;fontFamily=Helvetica;" parent="1" vertex="1"><mxGeometry x="-670" y="-1040" width="1200" height="780" as="geometry"/></mxCell><mxCell id="33" value="" style="edgeStyle=orthogonalEdgeStyle;rounded=0;orthogonalLoop=1;jettySize=auto;html=1;" edge="1" parent="1" source="wvRRvmHwsbUS-AD2EPGk-211" target="22"><mxGeometry relative="1" as="geometry"/></mxCell><mxCell id="wvRRvmHwsbUS-AD2EPGk-211" value="Package: Mypokemons" style="swimlane;fontStyle=0;childLayout=stackLayout;horizontal=1;startSize=26;fillColor=none;horizontalStack=0;resizeParent=1;resizeParentMax=0;resizeLast=0;collapsible=1;marginBottom=0;rounded=0;shadow=1;glass=0;sketch=0;" parent="1" vertex="1"><mxGeometry x="-640" y="-960" width="670" height="240" as="geometry"/></mxCell><mxCell id="wvRRvmHwsbUS-AD2EPGk-215" value="Pokemon" style="verticalLabelPosition=middle;verticalAlign=middle;html=1;shape=mxgraph.basic.rect;fillColor2=none;strokeWidth=1;size=20;indent=5;rounded=0;shadow=1;glass=0;sketch=0;align=center;labelPosition=center;" parent="1" vertex="1"><mxGeometry x="-610" y="-860" width="110" height="30" as="geometry"/></mxCell><mxCell id="24" value="" style="edgeStyle=orthogonalEdgeStyle;rounded=0;orthogonalLoop=1;jettySize=auto;html=1;" edge="1" parent="1" source="wvRRvmHwsbUS-AD2EPGk-219" target="wvRRvmHwsbUS-AD2EPGk-215"><mxGeometry relative="1" as="geometry"><Array as="points"><mxPoint x="-470" y="-895"/><mxPoint x="-470" y="-845"/></Array></mxGeometry></mxCell><mxCell id="wvRRvmHwsbUS-AD2EPGk-219" value="Torkoal" style="rounded=0;whiteSpace=wrap;html=1;shadow=1;glass=0;sketch=0;fontFamily=Helvetica;" parent="1" vertex="1"><mxGeometry x="-440" y="-910" width="120" height="30" as="geometry"/></mxCell><mxCell id="23" value="" style="edgeStyle=orthogonalEdgeStyle;rounded=0;orthogonalLoop=1;jettySize=auto;html=1;" edge="1" parent="1" source="wvRRvmHwsbUS-AD2EPGk-222" target="wvRRvmHwsbUS-AD2EPGk-215"><mxGeometry relative="1" as="geometry"/></mxCell><mxCell id="wvRRvmHwsbUS-AD2EPGk-222" value="Helioptile" style="rounded=0;whiteSpace=wrap;html=1;shadow=1;glass=0;sketch=0;fontFamily=Helvetica;" parent="1" vertex="1"><mxGeometry x="-440" y="-850" width="120" height="30" as="geometry"/></mxCell><mxCell id="30" value="" style="edgeStyle=orthogonalEdgeStyle;rounded=0;orthogonalLoop=1;jettySize=auto;html=1;" edge="1" parent="1" source="wvRRvmHwsbUS-AD2EPGk-223" target="wvRRvmHwsbUS-AD2EPGk-222"><mxGeometry relative="1" as="geometry"/></mxCell><mxCell id="wvRRvmHwsbUS-AD2EPGk-223" value="Heliolisk" style="rounded=0;whiteSpace=wrap;html=1;shadow=1;glass=0;sketch=0;fontFamily=Helvetica;" parent="1" vertex="1"><mxGeometry x="-260" y="-850" width="110" height="30" as="geometry"/></mxCell><mxCell id="31" value="" style="edgeStyle=orthogonalEdgeStyle;rounded=0;orthogonalLoop=1;jettySize=auto;html=1;" edge="1" parent="1" source="wvRRvmHwsbUS-AD2EPGk-227"><mxGeometry relative="1" as="geometry"><mxPoint x="-500" y="-845" as="targetPoint"/><Array as="points"><mxPoint x="-470" y="-775"/><mxPoint x="-470" y="-845"/></Array></mxGeometry></mxCell><mxCell id="wvRRvmHwsbUS-AD2EPGk-227" value="Grubbin" style="rounded=0;whiteSpace=wrap;html=1;shadow=1;glass=0;sketch=0;fontFamily=Helvetica;" parent="1" vertex="1"><mxGeometry x="-440" y="-790" width="120" height="30" as="geometry"/></mxCell><mxCell id="29" value="" style="edgeStyle=orthogonalEdgeStyle;rounded=0;orthogonalLoop=1;jettySize=auto;html=1;" edge="1" parent="1" source="wvRRvmHwsbUS-AD2EPGk-233" target="wvRRvmHwsbUS-AD2EPGk-227"><mxGeometry relative="1" as="geometry"/></mxCell><mxCell id="wvRRvmHwsbUS-AD2EPGk-233" value="Charjabug" style="rounded=0;whiteSpace=wrap;html=1;shadow=1;glass=0;sketch=0;fontFamily=Helvetica;" parent="1" vertex="1"><mxGeometry x="-260" y="-790" width="110" height="30" as="geometry"/></mxCell><mxCell id="28" value="" style="edgeStyle=orthogonalEdgeStyle;rounded=0;orthogonalLoop=1;jettySize=auto;html=1;" edge="1" parent="1" source="wvRRvmHwsbUS-AD2EPGk-235" target="wvRRvmHwsbUS-AD2EPGk-233"><mxGeometry relative="1" as="geometry"/></mxCell><mxCell id="wvRRvmHwsbUS-AD2EPGk-235" value="Vikavolt" style="rounded=0;whiteSpace=wrap;html=1;shadow=1;glass=0;sketch=0;fontFamily=Helvetica;" parent="1" vertex="1"><mxGeometry x="-90" y="-790" width="110" height="30" as="geometry"/></mxCell><mxCell id="32" value="" style="edgeStyle=orthogonalEdgeStyle;rounded=0;orthogonalLoop=1;jettySize=auto;html=1;" edge="1" parent="1" source="wvRRvmHwsbUS-AD2EPGk-237"><mxGeometry relative="1" as="geometry"><mxPoint x="-60" y="-720" as="targetPoint"/></mxGeometry></mxCell><mxCell id="wvRRvmHwsbUS-AD2EPGk-237" value="Package: Mymoves" style="swimlane;fontStyle=0;childLayout=stackLayout;horizontal=1;startSize=26;fillColor=none;horizontalStack=0;resizeParent=1;resizeParentMax=0;resizeLast=0;collapsible=1;marginBottom=0;rounded=0;shadow=1;glass=0;sketch=0;fontFamily=Helvetica;" parent="1" vertex="1"><mxGeometry x="-540" y="-660" width="1050" height="380" as="geometry"/></mxCell><mxCell id="wvRRvmHwsbUS-AD2EPGk-245" value="Move" style="verticalLabelPosition=middle;verticalAlign=middle;html=1;shape=mxgraph.basic.rect;fillColor2=none;strokeWidth=1;size=20;indent=5;rounded=0;shadow=1;glass=0;sketch=0;fontFamily=Helvetica;labelPosition=center;align=center;" parent="1" vertex="1"><mxGeometry x="-70" y="-620" width="120" height="30" as="geometry"/></mxCell><mxCell id="wvRRvmHwsbUS-AD2EPGk-251" style="edgeStyle=orthogonalEdgeStyle;rounded=0;orthogonalLoop=1;jettySize=auto;html=1;entryX=0.528;entryY=1.04;entryDx=0;entryDy=0;entryPerimeter=0;fontFamily=Helvetica;" parent="1" source="wvRRvmHwsbUS-AD2EPGk-246" target="wvRRvmHwsbUS-AD2EPGk-245" edge="1"><mxGeometry relative="1" as="geometry"/></mxCell><mxCell id="wvRRvmHwsbUS-AD2EPGk-246" value="DamageMove" style="verticalLabelPosition=middle;verticalAlign=middle;html=1;shape=mxgraph.basic.rect;fillColor2=none;strokeWidth=1;size=20;indent=5;rounded=0;shadow=1;glass=0;sketch=0;fontFamily=Helvetica;labelPosition=center;align=center;" parent="1" vertex="1"><mxGeometry x="-360" y="-550" width="150" height="30" as="geometry"/></mxCell><mxCell id="wvRRvmHwsbUS-AD2EPGk-250" style="edgeStyle=orthogonalEdgeStyle;rounded=0;orthogonalLoop=1;jettySize=auto;html=1;entryX=0.528;entryY=1.067;entryDx=0;entryDy=0;entryPerimeter=0;fontFamily=Helvetica;" parent="1" source="wvRRvmHwsbUS-AD2EPGk-247" target="wvRRvmHwsbUS-AD2EPGk-245" edge="1"><mxGeometry relative="1" as="geometry"/></mxCell><mxCell id="wvRRvmHwsbUS-AD2EPGk-247" value="StatusMove" style="verticalLabelPosition=middle;verticalAlign=middle;html=1;shape=mxgraph.basic.rect;fillColor2=none;strokeWidth=1;size=20;indent=5;rounded=0;shadow=1;glass=0;sketch=0;fontFamily=Helvetica;labelPosition=center;align=center;" parent="1" vertex="1"><mxGeometry x="290" y="-550" width="140" height="30" as="geometry"/></mxCell><mxCell id="wvRRvmHwsbUS-AD2EPGk-263" style="edgeStyle=orthogonalEdgeStyle;rounded=0;orthogonalLoop=1;jettySize=auto;html=1;fontFamily=Helvetica;" parent="1" source="wvRRvmHwsbUS-AD2EPGk-252" target="wvRRvmHwsbUS-AD2EPGk-247" edge="1"><mxGeometry relative="1" as="geometry"><Array as="points"><mxPoint x="190" y="-500"/><mxPoint x="360" y="-500"/></Array></mxGeometry></mxCell><mxCell id="wvRRvmHwsbUS-AD2EPGk-252" value="Rest" style="verticalLabelPosition=middle;verticalAlign=middle;html=1;shape=mxgraph.basic.rect;fillColor2=none;strokeWidth=1;size=20;indent=5;rounded=0;shadow=1;glass=0;sketch=0;fontFamily=Helvetica;labelPosition=center;align=center;" parent="1" vertex="1"><mxGeometry x="140" y="-480" width="100" height="40" as="geometry"/></mxCell><mxCell id="wvRRvmHwsbUS-AD2EPGk-260" value="" style="edgeStyle=orthogonalEdgeStyle;rounded=0;orthogonalLoop=1;jettySize=auto;html=1;fontFamily=Helvetica;" parent="1" source="wvRRvmHwsbUS-AD2EPGk-253" target="wvRRvmHwsbUS-AD2EPGk-247" edge="1"><mxGeometry relative="1" as="geometry"/></mxCell><mxCell id="wvRRvmHwsbUS-AD2EPGk-253" value="DoubleTeam" style="verticalLabelPosition=middle;verticalAlign=middle;html=1;shape=mxgraph.basic.rect;fillColor2=none;strokeWidth=1;size=20;indent=5;rounded=0;shadow=1;glass=0;sketch=0;fontFamily=Helvetica;labelPosition=center;align=center;" parent="1" vertex="1"><mxGeometry x="270" y="-480" width="100" height="40" as="geometry"/></mxCell><mxCell id="wvRRvmHwsbUS-AD2EPGk-261" value="" style="edgeStyle=orthogonalEdgeStyle;rounded=0;orthogonalLoop=1;jettySize=auto;html=1;fontFamily=Helvetica;" parent="1" source="wvRRvmHwsbUS-AD2EPGk-254" target="wvRRvmHwsbUS-AD2EPGk-247" edge="1"><mxGeometry relative="1" as="geometry"/></mxCell><mxCell id="wvRRvmHwsbUS-AD2EPGk-254" value="ThunderWave" style="verticalLabelPosition=middle;verticalAlign=middle;html=1;shape=mxgraph.basic.rect;fillColor2=none;strokeWidth=1;size=20;indent=5;rounded=0;shadow=1;glass=0;sketch=0;fontFamily=Helvetica;labelPosition=center;align=center;" parent="1" vertex="1"><mxGeometry x="400" y="-480" width="90" height="40" as="geometry"/></mxCell><mxCell id="2" style="edgeStyle=orthogonalEdgeStyle;rounded=0;orthogonalLoop=1;jettySize=auto;html=1;entryX=0.533;entryY=1;entryDx=0;entryDy=0;entryPerimeter=0;" edge="1" parent="1" source="wvRRvmHwsbUS-AD2EPGk-264" target="wvRRvmHwsbUS-AD2EPGk-246"><mxGeometry relative="1" as="geometry"/></mxCell><mxCell id="wvRRvmHwsbUS-AD2EPGk-264" value="PhysicalMove" style="verticalLabelPosition=middle;verticalAlign=middle;html=1;shape=mxgraph.basic.rect;fillColor2=none;strokeWidth=1;size=20;indent=5;rounded=0;shadow=1;glass=0;sketch=0;fontFamily=Helvetica;labelPosition=center;align=center;" parent="1" vertex="1"><mxGeometry x="-460" y="-480" width="120" height="30" as="geometry"/></mxCell><mxCell id="3" style="edgeStyle=orthogonalEdgeStyle;rounded=0;orthogonalLoop=1;jettySize=auto;html=1;entryX=0.533;entryY=1;entryDx=0;entryDy=0;entryPerimeter=0;" edge="1" parent="1" source="wvRRvmHwsbUS-AD2EPGk-265" target="wvRRvmHwsbUS-AD2EPGk-246"><mxGeometry relative="1" as="geometry"/></mxCell><mxCell id="wvRRvmHwsbUS-AD2EPGk-265" value="SpecialMove" style="verticalLabelPosition=middle;verticalAlign=middle;html=1;shape=mxgraph.basic.rect;fillColor2=none;strokeWidth=1;size=20;indent=5;rounded=0;shadow=1;glass=0;sketch=0;fontFamily=Helvetica;labelPosition=center;align=center;" parent="1" vertex="1"><mxGeometry x="-230" y="-480" width="120" height="30" as="geometry"/></mxCell><mxCell id="6" value="" style="edgeStyle=orthogonalEdgeStyle;rounded=0;orthogonalLoop=1;jettySize=auto;html=1;" edge="1" parent="1" source="4" target="wvRRvmHwsbUS-AD2EPGk-264"><mxGeometry relative="1" as="geometry"/></mxCell><mxCell id="4" value="StoneEdge" style="rounded=0;whiteSpace=wrap;html=1;" vertex="1" parent="1"><mxGeometry x="-530" y="-410" width="80" height="30" as="geometry"/></mxCell><mxCell id="7" value="" style="edgeStyle=orthogonalEdgeStyle;rounded=0;orthogonalLoop=1;jettySize=auto;html=1;" edge="1" parent="1" source="5" target="wvRRvmHwsbUS-AD2EPGk-264"><mxGeometry relative="1" as="geometry"/></mxCell><mxCell id="5" value="RockSlide" style="rounded=0;whiteSpace=wrap;html=1;" vertex="1" parent="1"><mxGeometry x="-370" y="-410" width="80" height="30" as="geometry"/></mxCell><mxCell id="11" value="" style="edgeStyle=orthogonalEdgeStyle;rounded=0;orthogonalLoop=1;jettySize=auto;html=1;" edge="1" parent="1" source="8"><mxGeometry relative="1" as="geometry"><mxPoint x="-400" y="-450" as="targetPoint"/><Array as="points"><mxPoint x="-330" y="-360"/><mxPoint x="-400" y="-360"/></Array></mxGeometry></mxCell><mxCell id="8" value="WildCharge" style="rounded=0;whiteSpace=wrap;html=1;" vertex="1" parent="1"><mxGeometry x="-370" y="-340" width="80" height="30" as="geometry"/></mxCell><mxCell id="10" value="" style="edgeStyle=orthogonalEdgeStyle;rounded=0;orthogonalLoop=1;jettySize=auto;html=1;" edge="1" parent="1" source="9" target="wvRRvmHwsbUS-AD2EPGk-264"><mxGeometry relative="1" as="geometry"><Array as="points"><mxPoint x="-490" y="-360"/><mxPoint x="-400" y="-360"/></Array></mxGeometry></mxCell><mxCell id="9" value="RockTomb" style="rounded=0;whiteSpace=wrap;html=1;" vertex="1" parent="1"><mxGeometry x="-530" y="-340" width="80" height="30" as="geometry"/></mxCell><mxCell id="17" value="" style="edgeStyle=orthogonalEdgeStyle;rounded=0;orthogonalLoop=1;jettySize=auto;html=1;" edge="1" parent="1" source="12" target="wvRRvmHwsbUS-AD2EPGk-265"><mxGeometry relative="1" as="geometry"/></mxCell><mxCell id="12" value="Inferno" style="rounded=0;whiteSpace=wrap;html=1;" vertex="1" parent="1"><mxGeometry x="-260" y="-410" width="80" height="30" as="geometry"/></mxCell><mxCell id="18" value="" style="edgeStyle=orthogonalEdgeStyle;rounded=0;orthogonalLoop=1;jettySize=auto;html=1;" edge="1" parent="1" source="13" target="wvRRvmHwsbUS-AD2EPGk-265"><mxGeometry relative="1" as="geometry"/></mxCell><mxCell id="13" value="HeatWave" style="rounded=0;whiteSpace=wrap;html=1;" vertex="1" parent="1"><mxGeometry x="-120" y="-410" width="80" height="30" as="geometry"/></mxCell><mxCell id="19" value="" style="edgeStyle=orthogonalEdgeStyle;rounded=0;orthogonalLoop=1;jettySize=auto;html=1;" edge="1" parent="1" source="14"><mxGeometry relative="1" as="geometry"><mxPoint x="-170" y="-450" as="targetPoint"/><Array as="points"><mxPoint x="-170" y="-325"/></Array></mxGeometry></mxCell><mxCell id="14" value="FocusBlast" style="rounded=0;whiteSpace=wrap;html=1;" vertex="1" parent="1"><mxGeometry x="-260" y="-340" width="80" height="30" as="geometry"/></mxCell><mxCell id="20" value="" style="edgeStyle=orthogonalEdgeStyle;rounded=0;orthogonalLoop=1;jettySize=auto;html=1;entryX=0.5;entryY=1;entryDx=0;entryDy=0;entryPerimeter=0;" edge="1" parent="1" source="15" target="wvRRvmHwsbUS-AD2EPGk-265"><mxGeometry relative="1" as="geometry"><Array as="points"><mxPoint x="-80" y="-350"/><mxPoint x="-170" y="-350"/></Array></mxGeometry></mxCell><mxCell id="15" value="Discharge" style="rounded=0;whiteSpace=wrap;html=1;" vertex="1" parent="1"><mxGeometry x="-120" y="-340" width="80" height="30" as="geometry"/></mxCell><mxCell id="22" value="Program" style="rounded=0;whiteSpace=wrap;html=1;" vertex="1" parent="1"><mxGeometry x="100" y="-860" width="150" height="40" as="geometry"/></mxCell></root></mxGraphModel></diagram></mxfile>